Onigamiden.2011.720p.BRRip.XviD.AC3.Eng+Swe-anoXmous

Format                           : AVI
Format/Info                      : Audio Video Interleave
File size                        : 732 MiB
Duration                         : 1h 38mn
Overall bit rate                 : 1 043 Kbps

Video
ID                               : 0
Format                           : MPEG-4 Visual
Format profile                   : Advanced Simple@L5
Format settings, BVOP            : 2
Format settings, QPel            : No
Format settings, GMC             : No warppoints
Format settings, Matrix          : Default (H.263)
Codec ID                         : XVID
Codec ID/Hint                    : XviD
Duration                         : 1h 38mn
Bit rate                         : 843 Kbps
Width                            : 1 280 pixels
Height                           : 544 pixels
Display aspect ratio             : 2.35:1
Frame rate                       : 23.976 fps
Color space                      : YUV
Chroma subsampling               : 4:2:0
Bit depth                        : 8 bits
Scan type                        : Progressive
Compression mode                 : Lossy
Bits/(Pixel*Frame)               : 0.050
Stream size                      : 592 MiB (81%)
Writing library                  : XviD 1.2.1 (UTC 2008-12-04)

Audio
ID                               : 1
Format                           : AC-3
Format/Info                      : Audio Coding 3
Mode extension                   : CM (complete main)
Codec ID                         : 2000
Duration                         : 1h 38mn
Bit rate mode                    : Constant
Bit rate                         : 192 Kbps
Channel(s)                       : 6 channels
Channel positions                : Front: L C R, Side: L R, LFE
Sampling rate                    : 48.0 KHz
Bit depth                        : 16 bits
Compression mode                 : Lossy
Stream size                      : 135 MiB (18%)
Alignment                        : Aligned on interleaves
Interleave, duration             : 64 ms (1.53 video frames)
Interleave, preload duration     : 192 ms

                              SUB:
Onigamiden.2011.720p.BRRip.XviD.AC3.Eng+Swe-anoXmous.avi._eng.srt
Onigamiden.2011.720p.BRRip.XviD.AC3.Eng+Swe-anoXmous.avi_swe.srt

             http://www.imdb.com/title/tt1849027/
			 
Source: Onigamiden.2011.1080p.BRRiP.x264.AAC.mkv-Zen_Bud  THX :)